<svg xmlns="http://www.w3.org/2000/svg" width="46.954" height="36.957" viewBox="0 0 46.954 36.957">
  <g id="foto" transform="translate(0 -44.8)">
    <g id="Grupo_127" data-name="Grupo 127" transform="translate(0 44.8)">
      <g id="Grupo_126" data-name="Grupo 126" transform="translate(0 0)">
        <path id="Caminho_192" data-name="Caminho 192" d="M45.392,50.558A5.048,5.048,0,0,0,41.688,49H34.279v-.089a4.007,4.007,0,0,0-1.205-2.9,4.084,4.084,0,0,0-2.9-1.205H16.782a4.115,4.115,0,0,0-4.151,4.106V49H5.267a5.048,5.048,0,0,0-3.7,1.562A5.306,5.306,0,0,0,0,54.262V76.49a5.048,5.048,0,0,0,1.562,3.7,5.306,5.306,0,0,0,3.7,1.562H41.688a5.048,5.048,0,0,0,3.7-1.562,5.306,5.306,0,0,0,1.562-3.7V54.262A5.048,5.048,0,0,0,45.392,50.558ZM44.634,76.49h-.045a2.9,2.9,0,0,1-2.9,2.9H5.267a2.9,2.9,0,0,1-2.9-2.9V54.262a2.9,2.9,0,0,1,2.9-2.9h8.614a1.2,1.2,0,0,0,1.205-1.205V48.862a1.68,1.68,0,0,1,1.741-1.741H30.172a1.68,1.68,0,0,1,1.741,1.741v1.294a1.2,1.2,0,0,0,1.205,1.205h8.614a2.9,2.9,0,0,1,2.9,2.9Z" transform="translate(0 -44.8)" fill="#979797"/>
        <path id="Caminho_193" data-name="Caminho 193" d="M122.98,130.8a10.972,10.972,0,1,0,7.766,3.214A11,11,0,0,0,122.98,130.8Zm6.07,17.095a8.621,8.621,0,0,1-12.14,0,8.533,8.533,0,0,1-2.5-6.07,8.722,8.722,0,0,1,2.5-6.07,8.533,8.533,0,0,1,6.07-2.5,8.722,8.722,0,0,1,6.07,2.5,8.533,8.533,0,0,1,2.5,6.07A8.352,8.352,0,0,1,129.05,147.895Z" transform="translate(-99.503 -121.204)" fill="#979797"/>
        <circle id="Elipse_15" data-name="Elipse 15" cx="2.187" cy="2.187" r="2.187" transform="translate(37.18 9.552)" fill="#979797"/>
      </g>
    </g>
  </g>
</svg>
